<svg width="0" height="0" class="hidden">
  <symbol viewBox="0 0 23 20" xmlns="http://www.w3.org/2000/svg" id="favorites">
    <path d="M11.4867 1.65429C14.0706 -0.627558 18.0635 -0.551821 20.5528 1.90098C23.0409 4.35487 23.1267 8.2629 20.8124 10.812L11.4845 20L2.15892 10.812C-0.155442 8.2629 -0.068543 4.34837 2.41851 1.90098C4.90996 -0.548575 8.89519 -0.630804 11.4867 1.65429ZM18.9952 3.42979C17.3452 1.80469 14.6833 1.73869 12.9563 3.26425L11.4878 4.56044L10.0183 3.26533C8.2858 1.73761 5.62935 1.80469 3.97498 3.43195C2.33601 5.04407 2.25351 7.62455 3.76379 9.32971L11.4856 16.937L19.2075 9.3308C20.7189 7.62455 20.6364 5.04732 18.9952 3.42979Z"/>
  </symbol>

  <symbol viewBox="0 0 24 25" xmlns="http://www.w3.org/2000/svg" id="basket">
    <path d="M4.08589 6.04602L0.48584 2.50535L2.05663 0.959991L5.65556 4.50175H22.5757C22.7487 4.50174 22.9193 4.54152 23.074 4.61792C23.2286 4.69431 23.3629 4.80521 23.4662 4.94176C23.5695 5.07831 23.639 5.23673 23.669 5.40438C23.699 5.57202 23.6888 5.74425 23.6391 5.90732L20.9749 14.6443C20.9064 14.8694 20.7659 15.0667 20.5743 15.207C20.3827 15.3473 20.1503 15.423 19.9114 15.423H6.30608V17.6072H18.5172V19.7915H5.19598C4.90157 19.7915 4.61921 19.6764 4.41103 19.4716C4.20284 19.2668 4.08589 18.989 4.08589 18.6994V6.04602ZM6.30608 6.686V13.2387H19.0855L21.0837 6.686H6.30608ZM5.75103 24.16C5.30941 24.16 4.88587 23.9874 4.5736 23.6802C4.26132 23.373 4.08589 22.9563 4.08589 22.5218C4.08589 22.0873 4.26132 21.6707 4.5736 21.3634C4.88587 21.0562 5.30941 20.8836 5.75103 20.8836C6.19266 20.8836 6.61619 21.0562 6.92847 21.3634C7.24074 21.6707 7.41618 22.0873 7.41618 22.5218C7.41618 22.9563 7.24074 23.373 6.92847 23.6802C6.61619 23.9874 6.19266 24.16 5.75103 24.16ZM19.0722 24.16C18.6306 24.16 18.207 23.9874 17.8948 23.6802C17.5825 23.373 17.4071 22.9563 17.4071 22.5218C17.4071 22.0873 17.5825 21.6707 17.8948 21.3634C18.207 21.0562 18.6306 20.8836 19.0722 20.8836C19.5138 20.8836 19.9374 21.0562 20.2496 21.3634C20.5619 21.6707 20.7373 22.0873 20.7373 22.5218C20.7373 22.9563 20.5619 23.373 20.2496 23.6802C19.9374 23.9874 19.5138 24.16 19.0722 24.16Z"/>
  </symbol>

  <symbol viewBox="0 0 25 23" fill="none" xmlns="http://www.w3.org/2000/svg" id="star">
    <path d="M12.6268 18.0143L5.41618 22.3656L7.37647 14.2449L0.960754 8.81491L9.38215 8.14829L12.6268 0.439671L15.8715 8.14829L24.2941 8.81491L17.8771 14.2449L19.8374 22.3656L12.6268 18.0143Z" fill="#FFCE7F"/>
  </symbol>

  <symbol viewBox="0 0 31 21" xmlns="http://www.w3.org/2000/svg" id="vk">
    <path d="M0 2.99944C0 1.96133 0.575033 1.40157 1.7251 1.32015L6.15682 1.35068C6.45425 1.35068 6.65254 1.50334 6.75168 1.80867C7.20774 3.3353 7.71833 4.65328 8.28345 5.76263C8.84857 6.87198 9.58719 8.14926 10.4993 9.59447C10.5786 9.77766 10.7075 9.86926 10.886 9.86926C11.0248 9.86926 11.1338 9.79802 11.2131 9.65553L11.3024 9.31967L11.3321 4.03754C11.3321 3.67115 11.2478 3.42689 11.0793 3.30476C10.9108 3.18263 10.5985 3.09104 10.1424 3.02997C9.78547 2.96891 9.60702 2.745 9.60702 2.35826C9.60702 2.27683 9.61693 2.21577 9.63676 2.17506C10.0532 0.851983 11.2429 0.190445 13.2059 0.190445L14.8715 0.159912C15.625 0.159912 16.2496 0.353285 16.7454 0.74003C17.2411 1.12678 17.4889 1.73743 17.4889 2.57198V9.50287C17.6277 9.60465 17.7566 9.65553 17.8756 9.65553C18.173 9.65553 18.4308 9.47234 18.6489 9.10595C20.8301 5.97127 22.0099 3.8747 22.1883 2.81624C22.1883 2.79589 22.2082 2.745 22.2478 2.66358C22.3866 2.35826 22.6147 2.09364 22.9319 1.86973C23.2492 1.64583 23.5268 1.49317 23.7647 1.41175C23.844 1.37104 23.9333 1.35068 24.0324 1.35068H28.6426L28.94 1.38121C29.3366 1.38121 29.6439 1.57459 29.8621 1.96133C29.9414 2.08346 29.9959 2.21577 30.0256 2.35826C30.0554 2.50074 30.0752 2.64323 30.0851 2.78571C30.095 2.9282 30.1 3.00962 30.1 3.02997V3.2437C29.9612 4.07826 29.6092 4.96879 29.0441 5.9153C28.479 6.86181 27.7602 7.88465 26.8877 8.98382C26.0153 10.083 25.47 10.8056 25.2519 11.1516C25.0734 11.3959 24.9842 11.6198 24.9842 11.8233C24.9842 11.9862 25.0635 12.1694 25.2221 12.3729L29.5646 17.9909C29.8026 18.3166 29.9215 18.6728 29.9215 19.0596C29.9215 19.5277 29.7431 19.9145 29.3862 20.2198C29.0292 20.5251 28.6029 20.6981 28.1072 20.7388L27.6016 20.7694H23.0806C23.0608 20.7694 23.0211 20.7745 22.9617 20.7846C22.9022 20.7948 22.8625 20.7999 22.8427 20.7999C22.4065 20.7999 22 20.6065 21.6232 20.2198C21.4844 20.057 20.5525 18.856 18.8274 16.617C18.7282 16.4745 18.5894 16.3422 18.411 16.22C18.3317 16.5457 18.2276 17.0139 18.0987 17.6245C17.9698 18.2352 17.8756 18.6728 17.8161 18.9374L17.7269 19.4565C17.5286 20.1689 17.1122 20.5964 16.4777 20.7388L16.0613 20.7694H13.1464C11.5007 20.7694 9.85983 19.9959 8.22396 18.4489C6.58809 16.9019 5.11581 14.902 3.80711 12.4493C2.49842 9.99648 1.27895 7.14169 0.148715 3.88488C0.0495718 3.62027 0 3.32512 0 2.99944ZM17.8756 10.9074C17.4592 10.9074 17.0824 10.7903 16.7454 10.5562C16.4083 10.3222 16.2397 10.0016 16.2397 9.59447V2.57198C16.2397 2.16488 16.1406 1.87482 15.9423 1.70181C15.744 1.52879 15.397 1.44228 14.9013 1.44228L13.2059 1.50334C12.3533 1.50334 11.7089 1.65601 11.2726 1.96133C12.1451 2.38879 12.5813 3.08086 12.5813 4.03754V9.41127C12.5417 9.92015 12.3434 10.3425 11.9865 10.6784C11.6295 11.0142 11.233 11.1822 10.7967 11.1822C10.2019 11.1822 9.74582 10.887 9.42856 10.2967C7.88192 7.89482 6.73185 5.61506 5.97836 3.45743L5.71067 2.66358L1.75484 2.63305C1.49707 2.63305 1.35331 2.64831 1.32357 2.67885C1.29382 2.70938 1.27895 2.79589 1.27895 2.93837C1.27895 3.12157 1.29878 3.31494 1.33844 3.51849L1.96304 5.22831C3.62866 9.64536 5.43803 13.1261 7.39116 15.6704C9.34429 18.2148 11.2627 19.487 13.1464 19.487H16.1208C16.2397 19.487 16.329 19.4514 16.3884 19.3801C16.4479 19.3089 16.4975 19.1715 16.5372 18.968L16.5966 18.6626L17.1618 15.9758C17.3204 15.6094 17.4592 15.3651 17.5782 15.243C17.7963 15.0191 18.0541 14.9071 18.3515 14.9071C18.8274 14.9071 19.3132 15.2023 19.8089 15.7926L22.3371 19.0901C22.4957 19.3547 22.6642 19.487 22.8427 19.487H27.7503C28.3452 19.487 28.6426 19.3343 28.6426 19.029C28.6426 18.9272 28.6128 18.8255 28.5534 18.7237L24.2406 13.1973C23.9035 12.7699 23.735 12.3119 23.735 11.8233C23.735 11.3348 23.8936 10.8667 24.2109 10.4188C24.4686 10.0117 24.9693 9.33494 25.7129 8.38843C26.4565 7.44192 27.1059 6.55648 27.6611 5.7321C28.2163 4.90772 28.5831 4.15968 28.7616 3.48796L28.8508 3.09104C28.831 3.05033 28.821 2.98417 28.821 2.89257C28.821 2.80098 28.8111 2.72465 28.7913 2.66358H24.1216C23.8242 2.78571 23.5863 2.96891 23.4078 3.21317L23.2293 3.79328C22.7336 5.19778 21.4348 7.36559 19.333 10.2967C18.9166 10.7038 18.4308 10.9074 17.8756 10.9074Z" />
  </symbol>

  <symbol viewBox="0 0 31 31" xmlns="http://www.w3.org/2000/svg" id="tg">
    <path d="M15.05 27.09C18.2432 27.09 21.3056 25.8215 23.5636 23.5636C25.8215 21.3056 27.09 18.2432 27.09 15.05C27.09 11.8568 25.8215 8.79437 23.5636 6.53643C21.3056 4.2785 18.2432 3.01 15.05 3.01C11.8568 3.01 8.79437 4.2785 6.53643 6.53643C4.2785 8.79437 3.01 11.8568 3.01 15.05C3.01 18.2432 4.2785 21.3056 6.53643 23.5636C8.79437 25.8215 11.8568 27.09 15.05 27.09ZM15.05 30.1C6.73789 30.1 0 23.3621 0 15.05C0 6.73789 6.73789 0 15.05 0C23.3621 0 30.1 6.73789 30.1 15.05C30.1 23.3621 23.3621 30.1 15.05 30.1ZM10.3695 16.8109L6.60996 15.6385C5.79726 15.3901 5.79275 14.8303 6.79207 14.4284L21.4402 8.76964C22.2906 8.42348 22.7722 8.86144 22.4967 9.95858L20.003 21.7277C19.8284 22.566 19.3242 22.7661 18.6244 22.3794L14.7851 19.5379L12.9957 21.2656C12.8121 21.4432 12.6631 21.5952 12.3801 21.6329C12.0987 21.672 11.8669 21.5877 11.6969 21.1212L10.3875 16.8003L10.3695 16.8124V16.8109Z" />
  </symbol>

  <symbol viewBox="0 0 31 31" xmlns="http://www.w3.org/2000/svg" id="whatsapp">
    <path d="M7.90578 24.8235L8.9954 25.4601C10.8329 26.5317 12.9228 27.0943 15.05 27.09C17.4313 27.09 19.7591 26.3838 21.7391 25.0609C23.719 23.7379 25.2622 21.8575 26.1735 19.6575C27.0848 17.4575 27.3232 15.0366 26.8587 12.7011C26.3941 10.3656 25.2474 8.22025 23.5636 6.53643C21.8797 4.85261 19.7344 3.70591 17.3989 3.24134C15.0634 2.77678 12.6425 3.01521 10.4425 3.92649C8.24248 4.83777 6.36209 6.38096 5.03912 8.36093C3.71615 10.3409 3.01002 12.6687 3.01002 15.05C3.01002 17.2112 3.5774 19.2836 4.64144 21.1061L5.27655 22.1957L4.29378 25.8092L7.90578 24.8235ZM0.00604013 30.1L2.0408 22.6231C0.700052 20.3248 -0.0043504 17.7108 2.02155e-05 15.05C2.02155e-05 6.73788 6.7379 0 15.05 0C23.3621 0 30.1 6.73788 30.1 15.05C30.1 23.3621 23.3621 30.1 15.05 30.1C12.3903 30.1043 9.77748 29.4004 7.47987 28.0607L0.00604013 30.1ZM9.61847 7.98853C9.82014 7.97348 10.0233 7.97348 10.225 7.98251C10.3063 7.98853 10.3875 7.99757 10.4688 8.0066C10.7081 8.03368 10.9715 8.17967 11.0603 8.38134C11.5087 9.39872 11.9452 10.4236 12.3666 11.4515C12.4599 11.6803 12.4042 11.9738 12.2266 12.2597C12.1045 12.4531 11.9724 12.64 11.8308 12.8196C11.6608 13.0378 11.295 13.4381 11.295 13.4381C11.295 13.4381 11.146 13.6157 11.2032 13.837C11.2243 13.9212 11.2935 14.0431 11.3567 14.1455L11.4455 14.2885C11.8308 14.9311 12.3485 15.5828 12.9806 16.1968C13.1612 16.3714 13.3373 16.5505 13.527 16.7175C14.2313 17.3391 15.0289 17.8463 15.8898 18.2225L15.8973 18.2255C16.0252 18.2812 16.09 18.3113 16.2766 18.3911C16.3699 18.4302 16.4662 18.4648 16.564 18.4904C16.6651 18.5162 16.7716 18.5113 16.8699 18.4765C16.9683 18.4417 17.054 18.3784 17.1164 18.2948C18.206 16.9749 18.3053 16.8891 18.3144 16.8891V16.8921C18.3901 16.8215 18.48 16.7679 18.5781 16.735C18.6762 16.702 18.7803 16.6904 18.8832 16.701C18.9735 16.707 19.0653 16.7235 19.1496 16.7612C19.9488 17.1269 21.2566 17.6973 21.2566 17.6973L22.1325 18.0901C22.28 18.1608 22.414 18.3279 22.4185 18.4889C22.4245 18.5897 22.4335 18.7523 22.3989 19.0503C22.3508 19.4401 22.2334 19.9081 22.116 20.1534C22.0356 20.3209 21.9289 20.4743 21.7999 20.608C21.6481 20.7674 21.4818 20.9125 21.3033 21.0414C21.2415 21.0878 21.1788 21.133 21.1152 21.1768C20.928 21.2956 20.7356 21.4061 20.5387 21.5079C20.1513 21.7138 19.7233 21.8319 19.2851 21.8541C19.0067 21.8691 18.7282 21.8902 18.4483 21.8752C18.4363 21.8752 17.5935 21.7442 17.5935 21.7442C15.4537 21.1814 13.4749 20.1271 11.8143 18.665C11.4741 18.3655 11.1596 18.0434 10.8375 17.7229C9.49807 16.3909 8.48671 14.9537 7.87267 13.5962C7.55838 12.9299 7.38861 12.2046 7.37452 11.4681C7.36831 10.5543 7.66701 9.6646 8.22334 8.93969C8.3332 8.79822 8.43704 8.65073 8.61614 8.48067C8.80727 8.30007 8.92767 8.20375 9.05861 8.13753C9.2327 8.05029 9.42261 7.9991 9.61696 7.98703L9.61847 7.98853Z" />
  </symbol>

  <symbol viewBox="0 0 20 20" fill="none" xmlns="http://www.w3.org/2000/svg" id="lang">
    <path d="M1.66666 9.99996C1.66666 14.6025 5.3975 18.3333 10 18.3333C14.6025 18.3333 18.3333 14.6025 18.3333 9.99996C18.3333 5.39746 14.6025 1.66663 10 1.66663C5.3975 1.66663 1.66666 5.39746 1.66666 9.99996Z" stroke="#838383" stroke-width="1.5" stroke-linecap="round" stroke-linejoin="round"/>
    <path d="M10.8333 1.70825C10.8333 1.70825 13.3333 4.99992 13.3333 9.99992C13.3333 14.9999 10.8333 18.2916 10.8333 18.2916" stroke="#838383" stroke-width="1.5" stroke-linecap="round" stroke-linejoin="round"/>
    <path d="M9.16666 18.2916C9.16666 18.2916 6.66666 14.9999 6.66666 9.99992C6.66666 4.99992 9.16666 1.70825 9.16666 1.70825" stroke="#838383" stroke-width="1.5" stroke-linecap="round" stroke-linejoin="round"/>
    <path d="M2.19167 12.9166H17.8083" stroke="#838383" stroke-width="1.5" stroke-linecap="round" stroke-linejoin="round"/>
    <path d="M2.19167 7.08325H17.8083" stroke="#838383" stroke-width="1.5" stroke-linecap="round" stroke-linejoin="round"/>
  </symbol>

  <symbol viewBox="0 0 21 17" fill="none" xmlns="http://www.w3.org/2000/svg" id="del">
    <path d="M15.8848 3.4H20.8667V5.1H18.874V16.15C18.874 16.3754 18.769 16.5916 18.5821 16.751C18.3953 16.9104 18.1418 17 17.8776 17H3.92813C3.66387 17 3.41044 16.9104 3.22358 16.751C3.03672 16.5916 2.93174 16.3754 2.93174 16.15V5.1H0.938965V3.4H5.92091V0.85C5.92091 0.624566 6.02589 0.408365 6.21275 0.248959C6.3996 0.0895533 6.65304 0 6.9173 0H14.8884C15.1527 0 15.4061 0.0895533 15.593 0.248959C15.7798 0.408365 15.8848 0.624566 15.8848 0.85V3.4ZM16.8812 5.1H4.92452V15.3H16.8812V5.1ZM12.3117 10.2L14.0734 11.7028L12.6645 12.9047L10.9029 11.4019L9.14124 12.9047L7.73234 11.7028L9.49396 10.2L7.73234 8.6972L9.14124 7.4953L10.9029 8.9981L12.6645 7.4953L14.0734 8.6972L12.3117 10.2ZM7.91369 1.7V3.4H13.892V1.7H7.91369Z" fill="#DF6464"/>
  </symbol>

  <symbol viewBox="0 0 14 2" fill="none" xmlns="http://www.w3.org/2000/svg" id="minus">
    <path d="M0 0H14V2H0V0Z" fill="white"/>
  </symbol>

  <symbol viewBox="0 0 15 14" fill="none" xmlns="http://www.w3.org/2000/svg" id="plus">
    <path d="M6.20557 6V0H8.20557V6H14.2056V8H8.20557V14H6.20557V8H0.205566V6H6.20557Z" fill="white"/>
  </symbol>

  <symbol viewBox="0 0 64 76" xmlns="http://www.w3.org/2000/svg" id="details">
    <path d="M34.1938 0.609863C24.516 0.609863 18.2239 5.52053 14.7817 10.2896C11.8764 14.3148 10.9385 17.7749 10.6509 18.9438C9.95301 19.6048 8.8705 20.9178 8.68799 23.2505C5.41089 25.2246 3.18018 28.7836 3.18018 32.8599C3.18018 35.1816 3.89707 37.3505 5.11377 39.1528C3.92712 40.4818 3.18018 42.2102 3.18018 44.1099C3.18018 45.5572 3.61492 46.9064 4.34033 48.0591C3.91419 48.6166 3.40315 49.3025 2.86377 50.1099C1.67044 51.8962 0.180176 53.7122 0.180176 56.6841C0.180642 57.0276 0.2401 57.3685 0.355957 57.6919C0.355957 57.6919 1.92979 61.4464 5.74072 64.0845C6.11358 66.7863 7.80481 68.7835 9.31494 69.7915C10.535 70.6059 11.1595 70.6718 11.7583 70.8286C12.2277 71.3989 12.601 72.0219 14.1431 72.9907C16.3051 74.3489 19.634 75.6099 24.1802 75.6099C30.8807 75.6099 35.2285 72.571 37.2173 69.0825C39.2061 65.5941 39.1802 61.9932 39.1802 60.6099C39.1802 57.0375 37.7716 52.8454 33.8892 50.0044C33.1849 49.489 32.3876 49.0331 31.5454 48.604C31.5912 48.6044 31.6343 48.6099 31.6802 48.6099C35.9302 48.6099 39.4995 46.9081 41.7993 44.3208C44.0991 41.7335 45.1802 38.4015 45.1802 35.1099C45.1802 31.8182 44.0991 28.4862 41.7993 25.8989C39.4995 23.3116 35.9302 21.6099 31.6802 21.6099C27.9446 21.6099 24.7884 22.9683 22.5044 25.0435C20.8042 23.2903 18.5458 22.099 16.0239 21.7388C16.1208 21.531 16.1935 21.3127 16.2407 21.0884C16.2407 21.0884 16.9972 17.4737 19.645 13.8052C22.2928 10.1367 26.4537 6.60986 34.1938 6.60986C37.1607 6.60986 43.3887 7.41043 48.3911 10.061C53.3935 12.7116 57.2195 16.6676 57.1802 24.3286C57.1742 25.4897 56.7432 28.2823 56.2837 30.5513C56.2706 30.6161 56.2675 30.6043 56.2544 30.6685C56.0365 30.6245 55.8145 30.6048 55.5923 30.6099C55.1255 30.6239 54.6685 30.7466 54.2575 30.9684C53.8466 31.1902 53.493 31.5048 53.2251 31.8872L48.7251 38.3208C48.3153 38.8993 48.1235 39.6042 48.1839 40.3106C48.2442 41.0169 48.5527 41.6791 49.0547 42.1797C49.5567 42.6803 50.2198 42.987 50.9263 43.0453C51.6328 43.1037 52.3372 42.91 52.9146 42.4985C53.0892 42.9106 53.3539 43.2784 53.6892 43.575C54.0245 43.8715 54.4218 44.0892 54.8522 44.2123C55.2825 44.3353 55.7349 44.3605 56.1763 44.286C56.6176 44.2115 57.0367 44.0392 57.4028 43.7817C57.6671 44.4283 58.1487 44.9624 58.7646 45.292C59.3804 45.6215 60.092 45.7259 60.7765 45.587C61.4611 45.4481 62.0757 45.0748 62.5145 44.5313C62.9533 43.9878 63.1887 43.3083 63.1802 42.6099V34.8989C63.1799 34.4357 63.0724 33.9788 62.8661 33.564C62.6597 33.1492 62.3601 32.7879 61.9907 32.5083C62.0732 32.1213 62.0751 32.1629 62.1606 31.7407C62.6476 29.3364 63.1683 26.6018 63.1802 24.3579C63.2308 14.5019 57.4949 8.09494 51.1978 4.7583C44.9006 1.42166 38.097 0.609863 34.1938 0.609863ZM14.4302 27.6099C16.435 27.6099 18.0906 28.7426 18.9771 30.3579C18.4465 31.8917 18.1802 33.5041 18.1802 35.1099C18.1802 35.6102 18.2528 36.1104 18.3032 36.6099H10.7974C9.81396 35.6593 9.18018 34.3551 9.18018 32.8599C9.18018 29.9237 11.494 27.6099 14.4302 27.6099ZM31.6802 27.6099C34.4302 27.6099 36.1109 28.5331 37.311 29.8833C38.5112 31.2335 39.1802 33.1515 39.1802 35.1099C39.1802 37.0682 38.5112 38.9862 37.311 40.3364C36.1109 41.6866 34.4302 42.6099 31.6802 42.6099C28.9302 42.6099 27.2495 41.6866 26.0493 40.3364C24.8491 38.9862 24.1802 37.0682 24.1802 35.1099C24.1802 33.1515 24.8491 31.2335 26.0493 29.8833C27.2495 28.5331 28.9302 27.6099 31.6802 27.6099ZM14.4302 30.6099C13.8334 30.6099 13.2611 30.8469 12.8392 31.2689C12.4172 31.6908 12.1802 32.2631 12.1802 32.8599C12.1802 33.4566 12.4172 34.0289 12.8392 34.4509C13.2611 34.8728 13.8334 35.1099 14.4302 35.1099C15.0269 35.1099 15.5992 34.8728 16.0212 34.4509C16.4431 34.0289 16.6802 33.4566 16.6802 32.8599C16.6802 32.2631 16.4431 31.6908 16.0212 31.2689C15.5992 30.8469 15.0269 30.6099 14.4302 30.6099ZM32.4302 33.6099C31.8334 33.6099 31.2611 33.8469 30.8392 34.2689C30.4172 34.6908 30.1802 35.2631 30.1802 35.8599C30.1802 36.4566 30.4172 37.0289 30.8392 37.4509C31.2611 37.8728 31.8334 38.1099 32.4302 38.1099C33.0269 38.1099 33.5992 37.8728 34.0212 37.4509C34.4431 37.0289 34.6802 36.4566 34.6802 35.8599C34.6802 35.2631 34.4431 34.6908 34.0212 34.2689C33.5992 33.8469 33.0269 33.6099 32.4302 33.6099ZM10.6802 42.6099H20.3188C20.6915 43.2019 21.0853 43.7856 21.561 44.3208C22.1911 45.0296 22.9322 45.6543 23.7407 46.2134C21.2518 45.8174 18.4243 45.6099 15.1802 45.6099H10.6802C9.81936 45.6099 9.18018 44.9707 9.18018 44.1099C9.18018 43.2491 9.81936 42.6099 10.6802 42.6099ZM53.231 45.6099C52.2818 45.6099 51.5246 45.7178 50.9458 45.8618C50.367 46.0059 49.7446 46.313 49.7446 46.313C49.0791 46.691 48.5832 47.309 48.3584 48.0405C48.1336 48.7721 48.1968 49.5619 48.5352 50.2484C48.8736 50.9348 49.4615 51.4661 50.1786 51.7333C50.8958 52.0006 51.688 51.9837 52.3931 51.686C52.4713 51.6666 52.7341 51.6099 53.231 51.6099C53.8336 51.6099 54.1802 51.7208 54.1802 53.1099C54.1802 53.5044 54.1208 53.6346 53.688 53.9536C53.2552 54.2726 52.375 54.6099 51.1802 54.6099C50.3846 54.6099 49.6215 54.926 49.0589 55.4886C48.4964 56.0512 48.1803 56.8142 48.1802 57.6099C48.1802 61.7672 48.8447 68.0987 51.0103 73.6939C51.1409 74.0766 51.3475 74.4289 51.6177 74.7297C51.888 75.0306 52.2162 75.2737 52.5828 75.4444C52.9493 75.6152 53.3466 75.7101 53.7508 75.7234C54.1549 75.7368 54.5576 75.6683 54.9346 75.522C55.3116 75.3758 55.6552 75.1549 55.9447 74.8725C56.2342 74.5902 56.4636 74.2522 56.6191 73.879C56.7747 73.5057 56.8532 73.1048 56.8499 72.7005C56.8467 72.2961 56.7617 71.8966 56.6001 71.5259C55.1088 67.6728 54.6999 63.1066 54.5259 59.6021C55.4319 59.3044 56.4843 59.3465 57.2505 58.7817C58.9574 57.5235 60.1802 55.4063 60.1802 53.1099C60.1802 49.159 57.1043 45.6099 53.231 45.6099ZM9.3208 51.4692C9.76392 51.5525 10.2148 51.6099 10.6802 51.6099H15.1802C23.407 51.6099 28.0255 53.1432 30.3501 54.8442C32.6747 56.5453 33.1802 58.3502 33.1802 60.6099C33.1802 61.8515 33.0602 64.2506 32.0024 66.106C30.9447 67.9613 29.2936 69.6099 24.1802 69.6099C20.7103 69.6099 18.6021 68.7094 17.3306 67.9106C16.0591 67.1119 15.8071 66.6392 15.8071 66.6392C15.7825 66.6035 15.7571 66.5683 15.731 66.5337C19.6588 66.358 22.7509 65.6847 24.9067 64.9458C27.3943 64.0932 28.9146 63.0591 28.9146 63.0591C29.2363 62.8314 29.51 62.5425 29.7201 62.209C29.9302 61.8755 30.0726 61.5038 30.139 61.1153C30.2054 60.7267 30.1947 60.3289 30.1074 59.9445C30.02 59.5601 29.8578 59.1967 29.63 58.875C29.4022 58.5534 29.1133 58.2797 28.7797 58.0697C28.4461 57.8597 28.0745 57.7174 27.6859 57.6511C27.2973 57.5848 26.8995 57.5956 26.5152 57.683C26.1308 57.7705 25.7674 57.9328 25.4458 58.1606C25.4458 58.1606 24.8501 58.6266 22.9614 59.2739C21.0728 59.9213 18.0931 60.6099 13.9087 60.6099C8.15123 60.6099 6.72478 57.2538 6.37939 56.3032C6.51762 56.1313 6.98598 54.7461 7.85596 53.4439C8.58422 52.3537 8.9857 51.8849 9.3208 51.4692Z"  />
  </symbol>

  <symbol viewBox="0 0 306 306"  xmlns="http://www.w3.org/2000/svg" id="close">
    <path d="M152.667 0C68.4871 0 0 68.4871 0 152.667C0 236.846 68.4871 305.333 152.667 305.333C236.846 305.333 305.333 236.846 305.333 152.667C305.333 68.4871 236.846 0 152.667 0ZM207.942 191.34C209.079 192.419 209.987 193.716 210.615 195.152C211.243 196.588 211.576 198.136 211.596 199.703C211.616 201.271 211.322 202.826 210.732 204.278C210.141 205.73 209.266 207.049 208.158 208.158C207.049 209.266 205.73 210.141 204.278 210.732C202.826 211.322 201.271 211.616 199.703 211.596C198.136 211.576 196.588 211.243 195.152 210.615C193.716 209.987 192.419 209.079 191.34 207.942L152.667 169.277L113.994 207.942C111.773 210.052 108.817 211.21 105.755 211.171C102.692 211.132 99.7665 209.898 97.6009 207.732C95.4354 205.567 94.2015 202.641 94.1623 199.579C94.1231 196.516 95.2817 193.56 97.3911 191.34L136.057 152.667L97.3911 113.994C95.2817 111.773 94.1231 108.817 94.1623 105.755C94.2015 102.692 95.4354 99.7665 97.6009 97.6009C99.7665 95.4354 102.692 94.2015 105.755 94.1623C108.817 94.1231 111.773 95.2817 113.994 97.3911L152.667 136.057L191.34 97.3911C193.56 95.2817 196.516 94.1231 199.579 94.1623C202.641 94.2015 205.567 95.4354 207.732 97.6009C209.898 99.7665 211.132 102.692 211.171 105.755C211.21 108.817 210.052 111.773 207.942 113.994L169.277 152.667L207.942 191.34Z" />
  </symbol>



</svg>